<?xml version="1.0" encoding="utf-8"?>
<!-- Generator: Adobe Illustrator 16.0.0, SVG Export Plug-In . SVG Version: 6.00 Build 0)  -->
<!DOCTYPE svg PUBLIC "-//W3C//DTD SVG 1.1//EN" "http://www.w3.org/Graphics/SVG/1.1/DTD/svg11.dtd">
<svg version="1.1" id="Logo" xmlns="http://www.w3.org/2000/svg" xmlns:xlink="http://www.w3.org/1999/xlink" x="0px" y="0px"
	 width="40px" height="40px" viewBox="236 236 40 40" enable-background="new 236 236 40 40" xml:space="preserve">
<g>
	<path fill="#FFFFFF" d="M256,244.241c3.83,0,4.285,0.015,5.797,0.083c1.399,0.064,2.158,0.298,2.664,0.495
		c0.669,0.26,1.146,0.571,1.648,1.073s0.813,0.98,1.075,1.649c0.195,0.506,0.429,1.265,0.493,2.665
		c0.069,1.513,0.084,1.966,0.084,5.797c0,3.83-0.015,4.285-0.084,5.797c-0.063,1.398-0.298,2.158-0.493,2.663
		c-0.261,0.67-0.571,1.147-1.075,1.65c-0.501,0.502-0.979,0.813-1.648,1.072c-0.506,0.197-1.265,0.431-2.664,0.495
		c-1.514,0.068-1.967,0.085-5.797,0.085c-3.831,0-4.284-0.017-5.797-0.085c-1.398-0.063-2.158-0.297-2.664-0.495
		c-0.669-0.259-1.147-0.569-1.649-1.072c-0.501-0.503-0.813-0.98-1.073-1.65c-0.196-0.505-0.429-1.265-0.494-2.663
		c-0.068-1.513-0.083-1.967-0.083-5.797s0.015-4.284,0.083-5.796c0.064-1.399,0.298-2.158,0.494-2.664
		c0.261-0.669,0.572-1.147,1.073-1.649c0.502-0.501,0.98-0.813,1.649-1.073c0.506-0.196,1.266-0.43,2.664-0.494
		C251.716,244.255,252.17,244.241,256,244.241 M256,241.655c-3.896,0-4.385,0.017-5.914,0.086c-1.528,0.07-2.57,0.313-3.482,0.667
		c-0.943,0.367-1.744,0.857-2.542,1.654c-0.797,0.798-1.287,1.598-1.654,2.542c-0.355,0.912-0.598,1.955-0.667,3.482
		c-0.069,1.53-0.086,2.018-0.086,5.914c0,3.896,0.018,4.385,0.086,5.914c0.07,1.526,0.313,2.57,0.667,3.482
		c0.366,0.942,0.856,1.743,1.654,2.542c0.798,0.797,1.599,1.287,2.542,1.654c0.912,0.354,1.954,0.598,3.482,0.667
		c1.529,0.069,2.018,0.085,5.914,0.085s4.385-0.016,5.915-0.085c1.526-0.07,2.569-0.313,3.481-0.667
		c0.944-0.366,1.743-0.857,2.542-1.654c0.798-0.799,1.287-1.598,1.654-2.542c0.354-0.912,0.598-1.956,0.667-3.482
		c0.07-1.529,0.086-2.019,0.086-5.914c0-3.896-0.018-4.385-0.086-5.914c-0.07-1.528-0.313-2.57-0.667-3.482
		c-0.365-0.943-0.856-1.743-1.654-2.542c-0.799-0.797-1.598-1.288-2.542-1.654c-0.912-0.355-1.955-0.597-3.481-0.667
		C260.385,241.673,259.896,241.655,256,241.655L256,241.655z"/>
	<path fill="#FFFFFF" d="M256,248.635c-4.068,0-7.366,3.298-7.366,7.367s3.298,7.368,7.366,7.368s7.365-3.299,7.365-7.368
		S260.068,248.635,256,248.635z M256,260.783c-2.642,0-4.782-2.141-4.782-4.782s2.141-4.781,4.782-4.781
		c2.641,0,4.781,2.141,4.781,4.781C260.781,258.643,258.641,260.783,256,260.783z"/>
	<circle fill="#FFFFFF" cx="263.658" cy="248.344" r="1.721"/>
</g>
</svg>
