<?xml version="1.0" encoding="utf-8"?>
<!-- Generator: Adobe Illustrator 16.0.0, SVG Export Plug-In . SVG Version: 6.00 Build 0)  -->
<!DOCTYPE svg PUBLIC "-//W3C//DTD SVG 1.1//EN" "http://www.w3.org/Graphics/SVG/1.1/DTD/svg11.dtd">
<svg version="1.1" id="Layer_1" xmlns="http://www.w3.org/2000/svg" xmlns:xlink="http://www.w3.org/1999/xlink" x="0px" y="0px"
	 width="40px" height="40px" viewBox="182.49 182.49 40 40" enable-background="new 182.49 182.49 40 40" xml:space="preserve">
<path fill="#FFFFFF" d="M216.184,193.998c-1.008,0.447-2.091,0.749-3.229,0.884c1.16-0.694,2.053-1.796,2.472-3.107
	c-1.087,0.644-2.289,1.111-3.568,1.363c-1.025-1.092-2.485-1.775-4.102-1.775c-3.103,0-5.619,2.516-5.619,5.619
	c0,0.44,0.05,0.869,0.146,1.28c-4.669-0.234-8.809-2.471-11.581-5.87c-0.484,0.83-0.761,1.795-0.761,2.825
	c0,1.949,0.992,3.669,2.5,4.677c-0.921-0.029-1.788-0.282-2.545-0.703c0,0.024-0.001,0.047-0.001,0.071
	c0,2.722,1.938,4.993,4.507,5.509c-0.472,0.129-0.968,0.198-1.48,0.198c-0.362,0-0.714-0.035-1.057-0.101
	c0.715,2.23,2.79,3.855,5.249,3.901c-1.923,1.507-4.346,2.403-6.978,2.403c-0.454,0-0.901-0.025-1.34-0.077
	c2.486,1.594,5.439,2.524,8.612,2.524c10.335,0,15.986-8.562,15.986-15.987c0-0.244-0.006-0.486-0.017-0.727
	C214.477,196.113,215.43,195.124,216.184,193.998z"/>
</svg>
