<?xml version="1.0" encoding="utf-8"?>
<!-- Generator: Adobe Illustrator 16.0.0, SVG Export Plug-In . SVG Version: 6.00 Build 0)  -->
<!DOCTYPE svg PUBLIC "-//W3C//DTD SVG 1.1//EN" "http://www.w3.org/Graphics/SVG/1.1/DTD/svg11.dtd">
<svg version="1.1" id="YouTube_Icon" xmlns="http://www.w3.org/2000/svg" xmlns:xlink="http://www.w3.org/1999/xlink" x="0px"
	 y="0px" width="40px" height="40px" viewBox="492 340.5 40 40" enable-background="new 492 340.5 40 40" xml:space="preserve">
<g id="Lozenge">
	<g>
		<path fill="#FFFFFF" d="M525.238,355.099c0,0-0.266-1.861-1.075-2.681c-1.028-1.076-2.179-1.082-2.707-1.145
			c-3.779-0.273-9.45-0.273-9.45-0.273h-0.012c0,0-5.671,0-9.45,0.273c-0.528,0.063-1.679,0.069-2.707,1.145
			c-0.811,0.819-1.074,2.681-1.074,2.681s-0.27,2.187-0.27,4.372v2.05c0,2.186,0.27,4.371,0.27,4.371s0.264,1.862,1.074,2.682
			c1.028,1.076,2.376,1.042,2.978,1.155C504.976,369.935,512,370,512,370s5.675-0.01,9.457-0.281
			c0.527-0.063,1.679-0.069,2.705-1.146c0.812-0.818,1.075-2.68,1.075-2.68s0.27-2.186,0.27-4.373v-2.049
			C525.508,357.285,525.238,355.099,525.238,355.099z M509.211,364.003l0-7.589l7.299,3.809L509.211,364.003z"/>
	</g>
</g>
</svg>
